# xmcd
#
# Track frame offsets: 
#        150
#        14874
#        34972
#        61395
#        76708
#        100224
#        124375
#        139822
#        166532
#        209147
#
# Disc length: 3010 seconds
#
# Revision: 0
# Processed by: cddbd v1.5.2PL0 Copyright (c) Steve Scherf et al.
# Submitted via: ExactAudioCopy v1.0b3
#
DISCID=8d0bc00a
DTITLE=Various Artist - Hoa Tim Mua Xuan
DYEAR=2001
DGENRE=
TTITLE0=Xuan Mai - Chuc Tet
TTITLE1=Ngoc Son, Yen Khoa - Ai len xu hoa dao
TTITLE2=Quang Linh - Ong Tu ve lang
TTITLE3=tam ca Ngau Nhien - Diep khuc mua Xuan
TTITLE4=Bao Tho, Xuan Phu, Doremi - LK Mung Xuan
TTITLE5=Tuan Duc - Hoa tim mua Xuan
TTITLE6=Ngoc Son - Neu co yeu toi
TTITLE7=Yen Khoa - Dem giao thua nghe mot khuc dan ca
TTITLE8=Ngoc Son, Dinh Van, Che Thanh - LK Xuan ky niem
TTITLE9=hop ca - Xuan va tuoi tre
EXTD=
EXTT0=
EXTT1=
EXTT2=
EXTT3=
EXTT4=
EXTT5=
EXTT6=
EXTT7=
EXTT8=
EXTT9=
PLAYORDER=
